<svg xmlns:xlink="http://www.w3.org/1999/xlink" width="969.262" height="523.352" viewBox="0 0 726.947 392.514" xmlns="http://www.w3.org/2000/svg"><defs><style>*{stroke-linejoin:round;stroke-linecap:butt}</style></defs><g id="prefix__figure_1"><path d="M0 392.514h726.947V0H0z" fill="#fff" id="prefix__patch_1"/><g id="prefix__axes_1"><path d="M40.603 354.958h669.6V22.318h-669.6z" fill="#fff" id="prefix__patch_2"/><g id="prefix__matplotlib_axis_1"><g id="prefix__xtick_1"><g id="prefix__line2d_1"><defs><path id="prefix__m40100bf0eb" d="M0 0v3.5" stroke="#000" stroke-width=".8"/></defs><use xlink:href="#prefix__m40100bf0eb" x="163.591" y="354.958" stroke="#000" stroke-width=".8"/></g><g transform="matrix(.1 0 0 -.1 157.228 369.557)" id="prefix__text_1"><defs><path id="prefix__DejaVuSans-32" d="M1228 531h2203V0H469v531q359 372 979 998 621 627 780 809 303 340 423 576 121 236 121 464 0 372-261 606-261 235-680 235-297 0-627-103-329-103-704-313v638q381 153 712 231 332 78 607 78 725 0 1156-363 431-362 431-968 0-288-108-546-107-257-392-607-78-91-497-524-418-433-1181-1211z" transform="scale(.01563)"/><path id="prefix__DejaVuSans-30" d="M2034 4250q-487 0-733-480-245-479-245-1442 0-959 245-1439 246-480 733-480 491 0 736 480 246 480 246 1439 0 963-246 1442-245 480-736 480zm0 500q785 0 1199-621 414-620 414-1801 0-1178-414-1799Q2819-91 2034-91q-784 0-1198 620-414 621-414 1799 0 1181 414 1801 414 621 1198 621z" transform="scale(.01563)"/></defs><use xlink:href="#prefix__DejaVuSans-32"/><use xlink:href="#prefix__DejaVuSans-30" x="63.623"/></g></g><g id="prefix__xtick_2"><use xlink:href="#prefix__m40100bf0eb" x="300.244" y="354.958" stroke="#000" stroke-width=".8" id="prefix__line2d_2"/><g transform="matrix(.1 0 0 -.1 293.881 369.557)" id="prefix__text_2"><defs><path id="prefix__DejaVuSans-34" d="M2419 4116L825 1625h1594v2491zm-166 550h794V1625h666v-525h-666V0h-628v1100H313v609l1940 2957z" transform="scale(.01563)"/></defs><use xlink:href="#prefix__DejaVuSans-34"/><use xlink:href="#prefix__DejaVuSans-30" x="63.623"/></g></g><g id="prefix__xtick_3"><use xlink:href="#prefix__m40100bf0eb" x="436.897" y="354.958" stroke="#000" stroke-width=".8" id="prefix__line2d_3"/><g transform="matrix(.1 0 0 -.1 430.535 369.557)" id="prefix__text_3"><defs><path id="prefix__DejaVuSans-36" d="M2113 2584q-425 0-674-291-248-290-248-796 0-503 248-796 249-292 674-292t673 292q248 293 248 796 0 506-248 796-248 291-673 291zm1253 1979v-575q-238 112-480 171-242 60-480 60-625 0-955-422-329-422-376-1275 184 272 462 417 279 145 613 145 703 0 1111-427 408-426 408-1160 0-719-425-1154Q2819-91 2113-91q-810 0-1238 620-428 621-428 1799 0 1106 525 1764t1409 658q238 0 480-47t505-140z" transform="scale(.01563)"/></defs><use xlink:href="#prefix__DejaVuSans-36"/><use xlink:href="#prefix__DejaVuSans-30" x="63.623"/></g></g><g id="prefix__xtick_4"><use xlink:href="#prefix__m40100bf0eb" x="573.55" y="354.958" stroke="#000" stroke-width=".8" id="prefix__line2d_4"/><g transform="matrix(.1 0 0 -.1 567.188 369.557)" id="prefix__text_4"><defs><path id="prefix__DejaVuSans-38" d="M2034 2216q-450 0-708-241-257-241-257-662 0-422 257-663 258-241 708-241t709 242q260 243 260 662 0 421-258 662-257 241-711 241zm-631 268q-406 100-633 378-226 279-226 679 0 559 398 884 399 325 1092 325 697 0 1094-325t397-884q0-400-227-679-226-278-629-378 456-106 710-416 255-309 255-755 0-679-414-1042Q2806-91 2034-91q-771 0-1186 362-414 363-414 1042 0 446 256 755 257 310 713 416zm-231 997q0-362 226-565 227-203 636-203 407 0 636 203 230 203 230 565 0 363-230 566-229 203-636 203-409 0-636-203-226-203-226-566z" transform="scale(.01563)"/></defs><use xlink:href="#prefix__DejaVuSans-38"/><use xlink:href="#prefix__DejaVuSans-30" x="63.623"/></g></g><g id="prefix__xtick_5"><use xlink:href="#prefix__m40100bf0eb" x="710.203" y="354.958" stroke="#000" stroke-width=".8" id="prefix__line2d_5"/><g transform="matrix(.1 0 0 -.1 700.66 369.557)" id="prefix__text_5"><defs><path id="prefix__DejaVuSans-31" d="M794 531h1031v3560L703 3866v575l1116 225h631V531h1031V0H794v531z" transform="scale(.01563)"/></defs><use xlink:href="#prefix__DejaVuSans-31"/><use xlink:href="#prefix__DejaVuSans-30" x="63.623"/><use xlink:href="#prefix__DejaVuSans-30" x="127.246"/></g></g><g transform="matrix(.1 0 0 -.1 346.791 383.235)" id="prefix__text_6"><defs><path id="prefix__DejaVuSans-4e" d="M628 4666h850L3547 763v3903h612V0h-850L1241 3903V0H628v4666z" transform="scale(.01563)"/><path id="prefix__DejaVuSans-65" d="M3597 1894v-281H953q38-594 358-905t892-311q331 0 642 81t618 244V178Q3153 47 2828-22t-659-69q-838 0-1327 487-489 488-489 1320 0 859 464 1363 464 505 1252 505 706 0 1117-455 411-454 411-1235zm-575 169q-6 471-264 752-258 282-683 282-481 0-770-272t-333-766l2050 4z" transform="scale(.01563)"/><path id="prefix__DejaVuSans-69" d="M603 3500h575V0H603v3500zm0 1363h575v-729H603v729z" transform="scale(.01563)"/><path id="prefix__DejaVuSans-67" d="M2906 1791q0 625-258 968-257 344-723 344-462 0-720-344-258-343-258-968 0-622 258-966t720-344q466 0 723 344 258 344 258 966zm575-1357q0-893-397-1329-396-436-1215-436-303 0-572 45t-522 139v559q253-137 500-202 247-66 503-66 566 0 847 295t281 892v285q-178-310-456-463T1784 0Q1141 0 747 490 353 981 353 1791q0 812 394 1302 394 491 1037 491 388 0 666-153t456-462v531h575V434z" transform="scale(.01563)"/><path id="prefix__DejaVuSans-68" d="M3513 2113V0h-575v2094q0 497-194 743-194 247-581 247-466 0-735-297-269-296-269-809V0H581v4863h578V2956q207 316 486 472 280 156 646 156 603 0 912-373 310-373 310-1098z" transform="scale(.01563)"/><path id="prefix__DejaVuSans-62" d="M3116 1747q0 634-261 995t-717 361q-457 0-718-361t-261-995q0-634 261-995t718-361q456 0 717 361t261 995zM1159 2969q182 312 458 463 277 152 661 152 638 0 1036-506 399-506 399-1331T3314 415Q2916-91 2278-91q-384 0-661 152-276 152-458 464V0H581v4863h578V2969z" transform="scale(.01563)"/><path id="prefix__DejaVuSans-6f" d="M1959 3097q-462 0-731-361t-269-989q0-628 267-989 268-361 733-361 460 0 728 362 269 363 269 988 0 622-269 986-268 364-728 364zm0 487q750 0 1178-488 429-487 429-1349 0-859-429-1349Q2709-91 1959-91q-753 0-1180 489-426 490-426 1349 0 862 426 1349 427 488 1180 488z" transform="scale(.01563)"/><path id="prefix__DejaVuSans-75" d="M544 1381v2119h575V1403q0-497 193-746 194-248 582-248 465 0 735 297 271 297 271 810v1984h575V0h-575v538q-209-319-486-474-276-155-642-155-603 0-916 375-312 375-312 1097zm1447 2203z" transform="scale(.01563)"/><path id="prefix__DejaVuSans-72" d="M2631 2963q-97 56-211 82-114 27-251 27-488 0-749-317t-261-911V0H581v3500h578v-544q182 319 472 473 291 155 707 155 59 0 131-8 72-7 159-23l3-590z" transform="scale(.01563)"/><path id="prefix__DejaVuSans-73" d="M2834 3397v-544q-243 125-506 187-262 63-544 63-428 0-642-131t-214-394q0-200 153-314t616-217l197-44q612-131 870-370t258-667q0-488-386-773Q2250-91 1575-91q-281 0-586 55T347 128v594q319-166 628-249 309-82 613-82 406 0 624 139 219 139 219 392 0 234-158 359-157 125-692 241l-200 47q-534 112-772 345-237 233-237 639 0 494 350 762 350 269 994 269 318 0 599-47 282-46 519-140z" transform="scale(.01563)"/></defs><use xlink:href="#prefix__DejaVuSans-4e"/><use xlink:href="#prefix__DejaVuSans-65" x="74.805"/><use xlink:href="#prefix__DejaVuSans-69" x="136.328"/><use xlink:href="#prefix__DejaVuSans-67" x="164.111"/><use xlink:href="#prefix__DejaVuSans-68" x="227.588"/><use xlink:href="#prefix__DejaVuSans-62" x="290.967"/><use xlink:href="#prefix__DejaVuSans-6f" x="354.443"/><use xlink:href="#prefix__DejaVuSans-75" x="415.625"/><use xlink:href="#prefix__DejaVuSans-72" x="479.004"/><use xlink:href="#prefix__DejaVuSans-73" x="520.117"/></g></g><g id="prefix__matplotlib_axis_2"><g id="prefix__ytick_1"><g id="prefix__line2d_6"><defs><path id="prefix__m538774184a" d="M0 0h-3.5" stroke="#000" stroke-width=".8"/></defs><use xlink:href="#prefix__m538774184a" x="40.603" y="315.463" stroke="#000" stroke-width=".8"/></g><g transform="matrix(.1 0 0 -.1 20.878 319.262)" id="prefix__text_7"><defs><path id="prefix__DejaVuSans-35" d="M691 4666h2478v-532H1269V2991q137 47 274 70 138 23 276 23 781 0 1237-428 457-428 457-1159 0-753-469-1171Q2575-91 1722-91q-294 0-599 50Q819 9 494 109v635q281-153 581-228t634-75q541 0 856 284 316 284 316 772 0 487-316 771-315 285-856 285-253 0-505-56-251-56-513-175v2344z" transform="scale(.01563)"/></defs><use xlink:href="#prefix__DejaVuSans-35"/><use xlink:href="#prefix__DejaVuSans-35" x="63.623"/></g></g><g id="prefix__ytick_2"><use xlink:href="#prefix__m538774184a" x="40.603" y="266.542" stroke="#000" stroke-width=".8" id="prefix__line2d_7"/><g transform="matrix(.1 0 0 -.1 20.878 270.34)" id="prefix__text_8"><use xlink:href="#prefix__DejaVuSans-36"/><use xlink:href="#prefix__DejaVuSans-30" x="63.623"/></g></g><g id="prefix__ytick_3"><use xlink:href="#prefix__m538774184a" x="40.603" y="217.62" stroke="#000" stroke-width=".8" id="prefix__line2d_8"/><g transform="matrix(.1 0 0 -.1 20.878 221.42)" id="prefix__text_9"><use xlink:href="#prefix__DejaVuSans-36"/><use xlink:href="#prefix__DejaVuSans-35" x="63.623"/></g></g><g id="prefix__ytick_4"><use xlink:href="#prefix__m538774184a" x="40.603" y="168.699" stroke="#000" stroke-width=".8" id="prefix__line2d_9"/><g transform="matrix(.1 0 0 -.1 20.878 172.499)" id="prefix__text_10"><defs><path id="prefix__DejaVuSans-37" d="M525 4666h3000v-269L1831 0h-659l1594 4134H525v532z" transform="scale(.01563)"/></defs><use xlink:href="#prefix__DejaVuSans-37"/><use xlink:href="#prefix__DejaVuSans-30" x="63.623"/></g></g><g id="prefix__ytick_5"><use xlink:href="#prefix__m538774184a" x="40.603" y="119.778" stroke="#000" stroke-width=".8" id="prefix__line2d_10"/><g transform="matrix(.1 0 0 -.1 20.878 123.577)" id="prefix__text_11"><use xlink:href="#prefix__DejaVuSans-37"/><use xlink:href="#prefix__DejaVuSans-35" x="63.623"/></g></g><g id="prefix__ytick_6"><use xlink:href="#prefix__m538774184a" x="40.603" y="70.857" stroke="#000" stroke-width=".8" id="prefix__line2d_11"/><g transform="matrix(.1 0 0 -.1 20.878 74.656)" id="prefix__text_12"><use xlink:href="#prefix__DejaVuSans-38"/><use xlink:href="#prefix__DejaVuSans-30" x="63.623"/></g></g><g transform="matrix(0 -.1 -.1 0 14.798 212.882)" id="prefix__text_13"><defs><path id="prefix__DejaVuSans-53" d="M3425 4513v-616q-359 172-678 256-319 85-616 85-515 0-795-200t-280-569q0-310 186-468 186-157 705-254l381-78q706-135 1042-474t336-907q0-679-455-1029Q2797-91 1919-91q-331 0-705 75-373 75-773 222v650q384-215 753-325 369-109 725-109 540 0 834 212 294 213 294 607 0 343-211 537t-692 291l-385 75q-706 140-1022 440-315 300-315 835 0 619 436 975t1201 356q329 0 669-60 341-59 697-177z" transform="scale(.01563)"/><path id="prefix__DejaVuSans-63" d="M3122 3366v-538q-244 135-489 202t-495 67q-560 0-870-355-309-354-309-995t309-996q310-354 870-354 250 0 495 67t489 202V134Q2881 22 2623-34q-257-57-548-57-791 0-1257 497-465 497-465 1341 0 856 470 1346 471 491 1290 491 265 0 518-55 253-54 491-163z" transform="scale(.01563)"/><path id="prefix__DejaVuSans-28" d="M1984 4856q-418-718-622-1422-203-703-203-1425 0-721 205-1429t620-1424h-500Q1016-109 783 600T550 2009q0 697 231 1403 232 707 703 1444h500z" transform="scale(.01563)"/><path id="prefix__DejaVuSans-25" d="M4653 2053q-272 0-427-231-154-231-154-644 0-406 154-639 155-233 427-233 266 0 420 233 155 233 155 639 0 410-155 642-154 233-420 233zm0 397q494 0 784-344 291-343 291-928 0-584-292-927-292-342-783-342-500 0-791 342-290 343-290 927 0 588 292 930t789 342zM1428 4353q-269 0-424-233-154-232-154-639 0-412 153-644 153-231 425-231t426 231q155 232 155 644 0 403-156 637-156 235-425 235zm2822 397h500L1831-91h-500l2919 4841zm-2822 0q494 0 787-342 294-342 294-927 0-590-292-931t-789-341q-497 0-786 342-289 343-289 930 0 582 290 925 291 344 785 344z" transform="scale(.01563)"/><path id="prefix__DejaVuSans-29" d="M513 4856h500q468-737 701-1444 233-706 233-1403 0-700-233-1409T1013-844H513q415 716 620 1424t205 1429q0 722-205 1425-205 704-620 1422z" transform="scale(.01563)"/></defs><use xlink:href="#prefix__DejaVuSans-53"/><use xlink:href="#prefix__DejaVuSans-63" x="63.477"/><use xlink:href="#prefix__DejaVuSans-6f" x="118.457"/><use xlink:href="#prefix__DejaVuSans-72" x="179.639"/><use xlink:href="#prefix__DejaVuSans-65" x="218.502"/><use xlink:href="#prefix__DejaVuSans-20" x="280.025"/><use xlink:href="#prefix__DejaVuSans-28" x="311.813"/><use xlink:href="#prefix__DejaVuSans-25" x="350.826"/><use xlink:href="#prefix__DejaVuSans-29" x="445.846"/></g></g><g id="prefix__line2d_12"><path d="M47.436 300.375L61.1 276.833l13.665-14.154 13.666-2.243 13.665-4.19 13.665-4.218 13.666-6.073 13.665 1.648 13.665-2.77 13.666-1.361 13.665-3.527 13.665-3.925 13.665-1.923 13.666.488 13.665-14.014 13.665 1.9 13.666-3.806 13.665 3.491 13.665 3.903 13.666-2.134 13.665.172 13.665.581 13.666-.484 13.665.879 13.665 3.972 13.665 1.29 13.666.554 13.665 4.192 13.665.032 13.666 4.787 13.665-.144 13.665 2.143 13.666 1.013 13.665 3.559 13.665 3.835 13.665 4.535 13.666 1.986 13.665 4.85 13.665-2.027 13.666-.4 13.665 5.33 13.665-1.71 13.666 1.75 13.665.457 13.665 3.828 13.666-1.419 13.665 3.618 13.665-2.071 13.665-2.402" clip-path="url(#prefix__p6d05a95b70)" fill="none" stroke="#f28e2b" stroke-width="2" stroke-linecap="square"/><defs><path id="prefix__m6b44542349" d="M0 2.5a2.5 2.5 0 100-5 2.5 2.5 0 000 5z" stroke="#fff" stroke-width=".75"/></defs><g clip-path="url(#prefix__p6d05a95b70)" fill="#f28e2b" stroke="#fff" stroke-width=".75"><use xlink:href="#prefix__m6b44542349" x="47.436" y="300.375"/><use xlink:href="#prefix__m6b44542349" x="61.101" y="276.833"/><use xlink:href="#prefix__m6b44542349" x="74.766" y="262.679"/><use xlink:href="#prefix__m6b44542349" x="88.432" y="260.436"/><use xlink:href="#prefix__m6b44542349" x="102.097" y="256.246"/><use xlink:href="#prefix__m6b44542349" x="115.762" y="252.028"/><use xlink:href="#prefix__m6b44542349" x="129.428" y="245.955"/><use xlink:href="#prefix__m6b44542349" x="143.093" y="247.603"/><use xlink:href="#prefix__m6b44542349" x="156.758" y="244.832"/><use xlink:href="#prefix__m6b44542349" x="170.424" y="243.472"/><use xlink:href="#prefix__m6b44542349" x="184.089" y="239.945"/><use xlink:href="#prefix__m6b44542349" x="197.754" y="236.02"/><use xlink:href="#prefix__m6b44542349" x="211.419" y="234.097"/><use xlink:href="#prefix__m6b44542349" x="225.085" y="234.585"/><use xlink:href="#prefix__m6b44542349" x="238.75" y="220.571"/><use xlink:href="#prefix__m6b44542349" x="252.415" y="222.47"/><use xlink:href="#prefix__m6b44542349" x="266.081" y="218.665"/><use xlink:href="#prefix__m6b44542349" x="279.746" y="222.156"/><use xlink:href="#prefix__m6b44542349" x="293.411" y="226.059"/><use xlink:href="#prefix__m6b44542349" x="307.077" y="223.925"/><use xlink:href="#prefix__m6b44542349" x="320.742" y="224.097"/><use xlink:href="#prefix__m6b44542349" x="334.407" y="224.678"/><use xlink:href="#prefix__m6b44542349" x="348.073" y="224.194"/><use xlink:href="#prefix__m6b44542349" x="361.738" y="225.073"/><use xlink:href="#prefix__m6b44542349" x="375.403" y="229.045"/><use xlink:href="#prefix__m6b44542349" x="389.068" y="230.334"/><use xlink:href="#prefix__m6b44542349" x="402.734" y="230.889"/><use xlink:href="#prefix__m6b44542349" x="416.399" y="235.081"/><use xlink:href="#prefix__m6b44542349" x="430.064" y="235.113"/><use xlink:href="#prefix__m6b44542349" x="443.73" y="239.9"/><use xlink:href="#prefix__m6b44542349" x="457.395" y="239.756"/><use xlink:href="#prefix__m6b44542349" x="471.06" y="241.899"/><use xlink:href="#prefix__m6b44542349" x="484.726" y="242.912"/><use xlink:href="#prefix__m6b44542349" x="498.391" y="246.471"/><use xlink:href="#prefix__m6b44542349" x="512.056" y="250.306"/><use xlink:href="#prefix__m6b44542349" x="525.721" y="254.841"/><use xlink:href="#prefix__m6b44542349" x="539.387" y="256.827"/><use xlink:href="#prefix__m6b44542349" x="553.052" y="261.676"/><use xlink:href="#prefix__m6b44542349" x="566.717" y="259.65"/><use xlink:href="#prefix__m6b44542349" x="580.383" y="259.249"/><use xlink:href="#prefix__m6b44542349" x="594.048" y="264.579"/><use xlink:href="#prefix__m6b44542349" x="607.713" y="262.869"/><use xlink:href="#prefix__m6b44542349" x="621.379" y="264.62"/><use xlink:href="#prefix__m6b44542349" x="635.044" y="265.077"/><use xlink:href="#prefix__m6b44542349" x="648.709" y="268.905"/><use xlink:href="#prefix__m6b44542349" x="662.375" y="267.486"/><use xlink:href="#prefix__m6b44542349" x="676.04" y="271.104"/><use xlink:href="#prefix__m6b44542349" x="689.705" y="269.033"/><use xlink:href="#prefix__m6b44542349" x="703.37" y="266.631"/></g></g><g id="prefix__line2d_13"><path d="M47.436 318.207L61.1 306.22l13.665 3.936 13.666 3.089 13.665 5.29 13.665-.703 13.666-2.433 13.665 3.488 13.665-1.41 13.666.315 13.665 2.225 13.665 5.28 13.665 1.053 13.666 4.064 13.665-3.842 13.665 3.22 13.666.576 13.665 2.99 13.665.553 13.666.806 13.665 1.314 13.665 1.42 13.666-2.364 13.665-.196 13.665 2.92 13.665-.95 13.666.617 13.665 1.257 13.665-.2 13.666.077 13.665.93 13.665.297 13.666-3.256 13.665-1.024 13.665-1.775 13.665-.9 13.666-.72 13.665 2.715 13.665-3.99 13.666-1.711 13.665-2.575 13.665-3.217 13.666-.128 13.665-.325 13.665-.912 13.666.2 13.665-.591 13.665-.886 13.665-2.47" clip-path="url(#prefix__p6d05a95b70)" fill="none" stroke="#e15759" stroke-width="2" stroke-linecap="square"/><defs><path id="prefix__m28150ef777" d="M0 2.5a2.5 2.5 0 100-5 2.5 2.5 0 000 5z" stroke="#fff" stroke-width=".75"/></defs><g clip-path="url(#prefix__p6d05a95b70)" fill="#e15759" stroke="#fff" stroke-width=".75"><use xlink:href="#prefix__m28150ef777" x="47.436" y="318.207"/><use xlink:href="#prefix__m28150ef777" x="61.101" y="306.219"/><use xlink:href="#prefix__m28150ef777" x="74.766" y="310.155"/><use xlink:href="#prefix__m28150ef777" x="88.432" y="313.244"/><use xlink:href="#prefix__m28150ef777" x="102.097" y="318.534"/><use xlink:href="#prefix__m28150ef777" x="115.762" y="317.831"/><use xlink:href="#prefix__m28150ef777" x="129.428" y="315.398"/><use xlink:href="#prefix__m28150ef777" x="143.093" y="318.886"/><use xlink:href="#prefix__m28150ef777" x="156.758" y="317.477"/><use xlink:href="#prefix__m28150ef777" x="170.424" y="317.791"/><use xlink:href="#prefix__m28150ef777" x="184.089" y="320.016"/><use xlink:href="#prefix__m28150ef777" x="197.754" y="325.296"/><use xlink:href="#prefix__m28150ef777" x="211.419" y="326.349"/><use xlink:href="#prefix__m28150ef777" x="225.085" y="330.413"/><use xlink:href="#prefix__m28150ef777" x="238.75" y="326.571"/><use xlink:href="#prefix__m28150ef777" x="252.415" y="329.791"/><use xlink:href="#prefix__m28150ef777" x="266.081" y="330.367"/><use xlink:href="#prefix__m28150ef777" x="279.746" y="333.356"/><use xlink:href="#prefix__m28150ef777" x="293.411" y="333.91"/><use xlink:href="#prefix__m28150ef777" x="307.077" y="334.716"/><use xlink:href="#prefix__m28150ef777" x="320.742" y="336.03"/><use xlink:href="#prefix__m28150ef777" x="334.407" y="337.451"/><use xlink:href="#prefix__m28150ef777" x="348.073" y="335.086"/><use xlink:href="#prefix__m28150ef777" x="361.738" y="334.89"/><use xlink:href="#prefix__m28150ef777" x="375.403" y="337.81"/><use xlink:href="#prefix__m28150ef777" x="389.068" y="336.86"/><use xlink:href="#prefix__m28150ef777" x="402.734" y="337.477"/><use xlink:href="#prefix__m28150ef777" x="416.399" y="338.734"/><use xlink:href="#prefix__m28150ef777" x="430.064" y="338.534"/><use xlink:href="#prefix__m28150ef777" x="443.73" y="338.611"/><use xlink:href="#prefix__m28150ef777" x="457.395" y="339.541"/><use xlink:href="#prefix__m28150ef777" x="471.06" y="339.838"/><use xlink:href="#prefix__m28150ef777" x="484.726" y="336.582"/><use xlink:href="#prefix__m28150ef777" x="498.391" y="335.558"/><use xlink:href="#prefix__m28150ef777" x="512.056" y="333.783"/><use xlink:href="#prefix__m28150ef777" x="525.721" y="332.882"/><use xlink:href="#prefix__m28150ef777" x="539.387" y="332.164"/><use xlink:href="#prefix__m28150ef777" x="553.052" y="334.878"/><use xlink:href="#prefix__m28150ef777" x="566.717" y="330.888"/><use xlink:href="#prefix__m28150ef777" x="580.383" y="329.177"/><use xlink:href="#prefix__m28150ef777" x="594.048" y="326.602"/><use xlink:href="#prefix__m28150ef777" x="607.713" y="323.385"/><use xlink:href="#prefix__m28150ef777" x="621.379" y="323.257"/><use xlink:href="#prefix__m28150ef777" x="635.044" y="322.932"/><use xlink:href="#prefix__m28150ef777" x="648.709" y="322.02"/><use xlink:href="#prefix__m28150ef777" x="662.375" y="322.221"/><use xlink:href="#prefix__m28150ef777" x="676.04" y="321.629"/><use xlink:href="#prefix__m28150ef777" x="689.705" y="320.743"/><use xlink:href="#prefix__m28150ef777" x="703.37" y="318.272"/></g></g><g id="prefix__line2d_14"><path d="M47.436 281.26L61.1 243.616l13.665-38.058 13.666-10.45 13.665-19.447 13.665-11.288 13.666-12.544 13.665-.838 13.665-4.184 13.666-3.973 13.665-13.8 13.665-21.117 13.665-7.735 13.666-7.11 13.665-34.297 13.665-1.463 13.666-13.175 13.665 2.504 13.665 8.369 13.666-11.715 13.665-3.557 13.665-2.3 13.666.832 13.665 1.464 13.665 3.134 13.665 2.717 13.666-2.72 13.665 7.11 13.665-.42 13.666 11.917 13.665-1.882 13.665 2.717 13.666 5.02 13.665 4.6 13.665 7.11 13.665 8.992 13.666 6.27 13.665 9.827 13.665-.419 13.666 1.049 13.665 14.848 13.665 5.438 13.666 5.233 13.665 4.811 13.665 8.994 13.666 2.722 13.665 5.435 13.665-4.809 13.665.003" clip-path="url(#prefix__p6d05a95b70)" fill="none" stroke="#76b7b2" stroke-width="2" stroke-linecap="square"/><defs><path id="prefix__me5f00e4f47" d="M0 2.5a2.5 2.5 0 100-5 2.5 2.5 0 000 5z" stroke="#fff" stroke-width=".75"/></defs><g clip-path="url(#prefix__p6d05a95b70)" fill="#76b7b2" stroke="#fff" stroke-width=".75"><use xlink:href="#prefix__me5f00e4f47" x="47.436" y="281.26"/><use xlink:href="#prefix__me5f00e4f47" x="61.101" y="243.616"/><use xlink:href="#prefix__me5f00e4f47" x="74.766" y="205.558"/><use xlink:href="#prefix__me5f00e4f47" x="88.432" y="195.108"/><use xlink:href="#prefix__me5f00e4f47" x="102.097" y="175.661"/><use xlink:href="#prefix__me5f00e4f47" x="115.762" y="164.373"/><use xlink:href="#prefix__me5f00e4f47" x="129.428" y="151.829"/><use xlink:href="#prefix__me5f00e4f47" x="143.093" y="150.991"/><use xlink:href="#prefix__me5f00e4f47" x="156.758" y="146.807"/><use xlink:href="#prefix__me5f00e4f47" x="170.424" y="142.834"/><use xlink:href="#prefix__me5f00e4f47" x="184.089" y="129.034"/><use xlink:href="#prefix__me5f00e4f47" x="197.754" y="107.917"/><use xlink:href="#prefix__me5f00e4f47" x="211.419" y="100.182"/><use xlink:href="#prefix__me5f00e4f47" x="225.085" y="93.072"/><use xlink:href="#prefix__me5f00e4f47" x="238.75" y="58.775"/><use xlink:href="#prefix__me5f00e4f47" x="252.415" y="57.312"/><use xlink:href="#prefix__me5f00e4f47" x="266.081" y="44.137"/><use xlink:href="#prefix__me5f00e4f47" x="279.746" y="46.641"/><use xlink:href="#prefix__me5f00e4f47" x="293.411" y="55.01"/><use xlink:href="#prefix__me5f00e4f47" x="307.077" y="43.295"/><use xlink:href="#prefix__me5f00e4f47" x="320.742" y="39.738"/><use xlink:href="#prefix__me5f00e4f47" x="334.407" y="37.438"/><use xlink:href="#prefix__me5f00e4f47" x="348.073" y="38.27"/><use xlink:href="#prefix__me5f00e4f47" x="361.738" y="39.734"/><use xlink:href="#prefix__me5f00e4f47" x="375.403" y="42.868"/><use xlink:href="#prefix__me5f00e4f47" x="389.068" y="45.585"/><use xlink:href="#prefix__me5f00e4f47" x="402.734" y="42.864"/><use xlink:href="#prefix__me5f00e4f47" x="416.399" y="49.974"/><use xlink:href="#prefix__me5f00e4f47" x="430.064" y="49.556"/><use xlink:href="#prefix__me5f00e4f47" x="443.73" y="61.472"/><use xlink:href="#prefix__me5f00e4f47" x="457.395" y="59.59"/><use xlink:href="#prefix__me5f00e4f47" x="471.06" y="62.307"/><use xlink:href="#prefix__me5f00e4f47" x="484.726" y="67.328"/><use xlink:href="#prefix__me5f00e4f47" x="498.391" y="71.927"/><use xlink:href="#prefix__me5f00e4f47" x="512.056" y="79.036"/><use xlink:href="#prefix__me5f00e4f47" x="525.721" y="88.029"/><use xlink:href="#prefix__me5f00e4f47" x="539.387" y="94.299"/><use xlink:href="#prefix__me5f00e4f47" x="553.052" y="104.126"/><use xlink:href="#prefix__me5f00e4f47" x="566.717" y="103.707"/><use xlink:href="#prefix__me5f00e4f47" x="580.383" y="104.756"/><use xlink:href="#prefix__me5f00e4f47" x="594.048" y="119.604"/><use xlink:href="#prefix__me5f00e4f47" x="607.713" y="125.042"/><use xlink:href="#prefix__me5f00e4f47" x="621.379" y="130.275"/><use xlink:href="#prefix__me5f00e4f47" x="635.044" y="135.086"/><use xlink:href="#prefix__me5f00e4f47" x="648.709" y="144.08"/><use xlink:href="#prefix__me5f00e4f47" x="662.375" y="146.802"/><use xlink:href="#prefix__me5f00e4f47" x="676.04" y="152.237"/><use xlink:href="#prefix__me5f00e4f47" x="689.705" y="147.428"/><use xlink:href="#prefix__me5f00e4f47" x="703.37" y="147.431"/></g></g><path d="M266.08 354.958V22.318" clip-path="url(#prefix__p6d05a95b70)" fill="none" stroke-dasharray="7.4 3.2" stroke="#f28e2b" stroke-width="2" id="prefix__line2d_15"/><path d="M40.603 354.958V22.318" fill="none" stroke="#000" stroke-width=".8" stroke-linecap="square" id="prefix__patch_3"/><path d="M40.603 354.958h669.6" fill="none" stroke="#000" stroke-width=".8" stroke-linecap="square" id="prefix__patch_4"/><g transform="matrix(.12 0 0 -.12 313.776 16.318)" id="prefix__text_14"><defs><path id="prefix__DejaVuSans-76" d="M191 3500h609L1894 563l1094 2937h609L2284 0h-781L191 3500z" transform="scale(.01563)"/></defs><use xlink:href="#prefix__DejaVuSans-4e"/><use xlink:href="#prefix__DejaVuSans-65" x="74.805"/><use xlink:href="#prefix__DejaVuSans-69" x="136.328"/><use xlink:href="#prefix__DejaVuSans-67" x="164.111"/><use xlink:href="#prefix__DejaVuSans-68" x="227.588"/><use xlink:href="#prefix__DejaVuSans-62" x="290.967"/><use xlink:href="#prefix__DejaVuSans-6f" x="354.443"/><use xlink:href="#prefix__DejaVuSans-75" x="415.625"/><use xlink:href="#prefix__DejaVuSans-72" x="479.004"/><use xlink:href="#prefix__DejaVuSans-73" x="520.117"/><use xlink:href="#prefix__DejaVuSans-20" x="572.217"/><use xlink:href="#prefix__DejaVuSans-76" x="604.004"/><use xlink:href="#prefix__DejaVuSans-73" x="663.184"/><use xlink:href="#prefix__DejaVuSans-20" x="715.283"/><use xlink:href="#prefix__DejaVuSans-53" x="747.07"/><use xlink:href="#prefix__DejaVuSans-63" x="810.547"/><use xlink:href="#prefix__DejaVuSans-6f" x="865.527"/><use xlink:href="#prefix__DejaVuSans-72" x="926.709"/><use xlink:href="#prefix__DejaVuSans-65" x="965.572"/></g><g id="prefix__legend_1"><path d="M626.59 349.958h76.613q2 0 2-2v-43.034q0-2-2-2H626.59q-2 0-2 2v43.034q0 2 2 2z" fill="#fff" opacity=".8" stroke="#ccc" id="prefix__patch_5"/><g id="prefix__line2d_16"><path d="M628.59 311.022h20" fill="none" stroke="#f28e2b" stroke-width="2" stroke-linecap="square"/><use xlink:href="#prefix__m6b44542349" x="638.589" y="311.022" fill="#f28e2b" stroke="#fff" stroke-width=".75"/></g><g transform="matrix(.1 0 0 -.1 656.59 314.522)" id="prefix__text_15"><defs><path id="prefix__DejaVuSans-46" d="M628 4666h2681v-532H1259V2759h1850v-531H1259V0H628v4666z" transform="scale(.01563)"/></defs><use xlink:href="#prefix__DejaVuSans-46"/><use xlink:href="#prefix__DejaVuSans-31" x="57.52"/></g><g id="prefix__line2d_17"><path d="M628.59 325.7h20" fill="none" stroke="#e15759" stroke-width="2" stroke-linecap="square"/><use xlink:href="#prefix__m28150ef777" x="638.589" y="325.7" fill="#e15759" stroke="#fff" stroke-width=".75"/></g><g transform="matrix(.1 0 0 -.1 656.59 329.2)" id="prefix__text_16"><defs><path id="prefix__DejaVuSans-50" d="M1259 4147V2394h794q441 0 681 228 241 228 241 650 0 419-241 647-240 228-681 228h-794zm-631 519h1425q785 0 1186-355 402-355 402-1039 0-691-402-1044-401-353-1186-353h-794V0H628v4666z" transform="scale(.01563)"/><path id="prefix__DejaVuSans-6e" d="M3513 2113V0h-575v2094q0 497-194 743-194 247-581 247-466 0-735-297-269-296-269-809V0H581v3500h578v-544q207 316 486 472 280 156 646 156 603 0 912-373 310-373 310-1098z" transform="scale(.01563)"/></defs><use xlink:href="#prefix__DejaVuSans-50"/><use xlink:href="#prefix__DejaVuSans-72" x="58.553"/><use xlink:href="#prefix__DejaVuSans-65" x="97.416"/><use xlink:href="#prefix__DejaVuSans-63" x="158.939"/><use xlink:href="#prefix__DejaVuSans-69" x="213.92"/><use xlink:href="#prefix__DejaVuSans-73" x="241.703"/><use xlink:href="#prefix__DejaVuSans-69" x="293.803"/><use xlink:href="#prefix__DejaVuSans-6f" x="321.586"/><use xlink:href="#prefix__DejaVuSans-6e" x="382.768"/></g><g id="prefix__line2d_18"><path d="M628.59 340.378h20" fill="none" stroke="#76b7b2" stroke-width="2" stroke-linecap="square"/><use xlink:href="#prefix__me5f00e4f47" x="638.589" y="340.378" fill="#76b7b2" stroke="#fff" stroke-width=".75"/></g><g transform="matrix(.1 0 0 -.1 656.59 343.878)" id="prefix__text_17"><defs><path id="prefix__DejaVuSans-52" d="M2841 2188q203-69 395-294t386-619L4263 0h-679l-596 1197q-232 469-449 622t-592 153h-688V0H628v4666h1425q800 0 1194-335 394-334 394-1009 0-441-205-732-205-290-595-402zM1259 4147V2491h794q456 0 689 211t233 620q0 409-233 617t-689 208h-794z" transform="scale(.01563)"/><path id="prefix__DejaVuSans-61" d="M2194 1759q-697 0-966-159t-269-544q0-306 202-486 202-179 548-179 479 0 768 339t289 901v128h-572zm1147 238V0h-575v531q-197-318-491-470T1556-91q-537 0-855 302-317 302-317 808 0 590 395 890 396 300 1180 300h807v57q0 397-261 614t-733 217q-300 0-585-72-284-72-546-216v532q315 122 612 182 297 61 578 61 760 0 1135-394 375-393 375-1193z" transform="scale(.01563)"/><path id="prefix__DejaVuSans-6c" d="M603 4863h575V0H603v4863z" transform="scale(.01563)"/></defs><use xlink:href="#prefix__DejaVuSans-52"/><use xlink:href="#prefix__DejaVuSans-65" x="64.982"/><use xlink:href="#prefix__DejaVuSans-63" x="126.506"/><use xlink:href="#prefix__DejaVuSans-61" x="181.486"/><use xlink:href="#prefix__DejaVuSans-6c" x="242.766"/><use xlink:href="#prefix__DejaVuSans-6c" x="270.549"/></g></g></g></g><defs><clipPath id="prefix__p6d05a95b70"><path d="M40.603 22.318h669.6v332.64h-669.6z"/></clipPath></defs></svg>